<svg width="41" height="14" viewBox="0 0 41 14" fill="none" xmlns="http://www.w3.org/2000/svg">
<g clip-path="url(#clip0_51_375)">
<g clip-path="url(#clip1_51_375)">
<path d="M15.2248 0.291368L9.97794 12.8088H6.55482L3.97285 2.81865C3.8161 2.20332 3.68063 1.97789 3.20306 1.71866C2.42471 1.2964 1.13937 0.900228 0.00952148 0.654138L0.0852898 0.291368H5.59571C6.29808 0.291368 6.92948 0.758919 7.08895 1.56774L8.45257 8.81061L11.8225 0.291368H15.2248ZM28.6372 8.72252C28.651 5.41857 24.0686 5.23676 24.1001 3.76064C24.1099 3.31145 24.5384 2.83388 25.4738 2.71199C25.9378 2.65125 27.2162 2.60491 28.6672 3.27221L29.2361 0.61761C28.4558 0.333114 27.4533 0.0617676 26.206 0.0617676C23.0051 0.0617676 20.7525 1.76332 20.7336 4.1998C20.7126 6.00197 22.3407 7.00761 23.5682 7.60646C24.8304 8.2197 25.2539 8.61377 25.2491 9.16232C25.2402 10.002 24.2425 10.373 23.31 10.3874C21.682 10.4124 20.7379 9.94689 19.985 9.59685L19.3981 12.3393C20.1547 12.6865 21.5513 12.9894 22.9993 13.0046C26.4015 13.0046 28.6268 11.3249 28.6372 8.72252ZM37.0895 12.8088H40.0843L37.4702 0.291368H34.7057C34.4106 0.288824 34.1214 0.375017 33.8758 0.538773C33.6301 0.702529 33.4394 0.936297 33.3282 1.20977L28.4684 12.8088H31.8687L32.5437 10.939H36.6974L37.0895 12.8088ZM33.4762 8.37332L35.1806 3.67277L36.1616 8.37291L33.4762 8.37332ZM19.8517 0.291368L17.1739 12.8088H13.9356L16.6144 0.291368H19.8517Z" fill="#1434CB"/>
</g>
</g>
<defs>
<clipPath id="clip0_51_375">
<rect width="40.625" height="13.843" fill="white"/>
</clipPath>
<clipPath id="clip1_51_375">
<rect width="40.606" height="13.843" fill="white" transform="translate(0.00927734)"/>
</clipPath>
</defs>
</svg>
