<svg width="41" height="26" viewBox="0 0 41 26" fill="none" xmlns="http://www.w3.org/2000/svg">
<g clip-path="url(#clip0_51_379)">
<path d="M25.6412 3.35913H15.2351V22.0592H25.6412V3.35913Z" fill="#FF5F00"/>
<path d="M15.8935 12.7103C15.8919 10.9093 16.3 9.13163 17.087 7.51172C17.8739 5.89181 19.0191 4.47217 20.4358 3.36029C18.6815 1.98127 16.5744 1.12369 14.3557 0.885549C12.1369 0.647408 9.8959 1.03831 7.88881 2.0136C5.8817 2.98887 4.18949 4.50919 3.00559 6.40075C1.82168 8.29231 1.19385 10.4788 1.19385 12.7103C1.19385 14.9417 1.82168 17.1283 3.00559 19.0198C4.18949 20.9113 5.8817 22.4317 7.88881 23.407C9.8959 24.3823 12.1369 24.7732 14.3557 24.5351C16.5744 24.2969 18.6815 23.4394 20.4358 22.0604C19.0191 20.9484 17.874 19.5287 17.087 17.9089C16.3 16.289 15.8919 14.5113 15.8935 12.7103Z" fill="#EB001B"/>
<path d="M39.6796 12.7096C39.6797 14.9411 39.0519 17.1275 37.8682 19.019C36.6843 20.9107 34.9921 22.4309 32.985 23.4062C30.978 24.3815 28.7369 24.7725 26.5183 24.5344C24.2995 24.2961 22.1925 23.4385 20.4382 22.0595C21.8536 20.9465 22.998 19.5267 23.7848 17.9071C24.5716 16.2874 24.9805 14.5102 24.9805 12.7096C24.9805 10.9089 24.5716 9.13173 23.7848 7.51208C22.998 5.89243 21.8536 4.47257 20.4382 3.35955C22.1925 1.98054 24.2995 1.12295 26.5183 0.884813C28.7369 0.646676 30.978 1.03759 32.985 2.01289C34.9921 2.98818 36.6843 4.50849 37.8682 6.40005C39.0519 8.2916 39.6797 10.4781 39.6796 12.7096Z" fill="#F79E1B"/>
<path d="M38.5394 20.0786V19.6958H38.6938V19.6178H38.3005V19.6958H38.4551V20.0786H38.5394ZM39.3027 20.0786V19.6169H39.1822L39.0436 19.9344L38.9049 19.6169H38.7843V20.0786H38.8694V19.7303L38.9994 20.0306H39.0877L39.2176 19.7296V20.0786H39.3027Z" fill="#F79E1B"/>
</g>
<defs>
<clipPath id="clip0_51_379">
<rect width="40.625" height="25.1977" fill="white"/>
</clipPath>
</defs>
</svg>
